<svg id="Gruppe_99" data-name="Gruppe 99" xmlns="http://www.w3.org/2000/svg" width="164" height="13.887" viewBox="0 0 164 13.887">
  <path id="Pfad_255" data-name="Pfad 255" d="M2796.323,322.635c-.4-.9-.4-.9-1.3-.881-.744.016-.754.016-.757.816-.005,2.246,0,4.494,0,6.74,0,.379-.009.76,0,1.137.019.647.04.666.712.683.292.008.583.008.876,0,.712-.018.726-.025.731-.75.01-1.284-.026-2.568.018-3.852a5.235,5.235,0,0,1,.3-1.615,1.85,1.85,0,0,1,2.18-1.189,1.725,1.725,0,0,1,1.279,1.769c.014.233.01.467.01.7,0,1.109-.014,2.218.005,3.327.031,1.857-.352,1.588,1.709,1.611.058,0,.116-.005.175-.007a.387.387,0,0,0,.436-.426c0-.2.008-.409.008-.612,0-1.313,0-2.627.005-3.94a2.59,2.59,0,0,1,.794-1.969,1.665,1.665,0,0,1,2.857.833,4.824,4.824,0,0,1,.115,1.038c.016.9.005,1.809.006,2.713,0,.613.008,1.225,0,1.839-.005.364.148.538.519.531.409-.009.818-.01,1.226,0s.592-.132.59-.555c-.013-1.867.047-3.737-.031-5.6a3.317,3.317,0,0,0-3.136-3.478,3.933,3.933,0,0,0-2.932.906c-.2.16-.387.342-.578.511C2800.345,321.069,2799.069,321.007,2796.323,322.635Z" transform="translate(-2675.676 -317.553)" fill="#5c5c5b"/>
  <path id="Pfad_256" data-name="Pfad 256" d="M2771.368,323.4c0-1.364-.009-2.554,0-3.746.013-1.432-.107-1.2-1.18-1.2-1.11-.009-1.169,0-1.177,1.122-.03,3.791-.048,7.584,0,11.373.014,1.14-.118,1.069,1.138,1.075.145,0,.292,0,.438,0,.688-.019.761-.07.77-.744.017-1.166,0-2.333.009-3.5a8.555,8.555,0,0,1,.063-1.221,2.239,2.239,0,0,1,2.381-1.969c1.153.03,1.787.706,1.917,2.056.022.232.014.467.014.7,0,1.049-.01,2.1,0,3.149.025,1.755-.291,1.514,1.614,1.526.653,0,.7-.043.7-.7.009-1.634.013-3.267-.009-4.9a5.534,5.534,0,0,0-.179-1.3,3.55,3.55,0,0,0-4.1-2.711A5.223,5.223,0,0,0,2771.368,323.4Z" transform="translate(-2683.104 -318.442)" fill="#5c5c5b"/>
  <path id="Pfad_257" data-name="Pfad 257" d="M2824.215,328.241c-.175,0-.351-.008-.525,0-.593.029-.639.1-.492.7a2.86,2.86,0,0,0,1.146,1.705,5.551,5.551,0,0,0,5.653.034,2.721,2.721,0,0,0,1.18-2.656,2.421,2.421,0,0,0-1.568-2.04,4.3,4.3,0,0,0-.821-.3c-.621-.157-1.254-.267-1.872-.435a3.165,3.165,0,0,1-.956-.4.631.631,0,0,1,.018-1.092,2.156,2.156,0,0,1,2.606.392.827.827,0,0,0,.779.436c.35-.014.7.009,1.05-.007.54-.025.633-.144.5-.64a2.891,2.891,0,0,0-1.6-1.977,5.089,5.089,0,0,0-4.323-.044,2.622,2.622,0,0,0-1.689,2.543,2.471,2.471,0,0,0,1.82,2.416c.658.23,1.348.364,2.021.553a7.491,7.491,0,0,1,1.245.4.772.772,0,0,1,.035,1.4,2.3,2.3,0,0,1-2.88-.611.741.741,0,0,0-.718-.378C2824.624,328.249,2824.419,328.241,2824.215,328.241Z" transform="translate(-2667.191 -317.555)" fill="#5c5c5b"/>
  <path id="Pfad_258" data-name="Pfad 258" d="M2740.863,324.352c.619,0,1.14,0,1.66,0,1.466-.008,1.43.208,1.4-1.514-.009-.537-.067-.584-.623-.6-.582-.016-1.164,0-1.748-.006-.7-.012-.706-.017-.719-.753-.007-.349.013-.7-.007-1.048-.029-.489-.1-.542-.666-.581-.986-.069-1.221.013-1.32.462-.011.056-.008.116-.015.173-.047.317-.124.631-.139.948-.04.959-.308.8-.9.8-1.14,0-1.088-.1-1.087,1.089,0,1.011,0,1.011.983,1.029.829.014.833.014.841.809.007.757-.011,1.515,0,2.272a10.052,10.052,0,0,0,.106,1.391,2.932,2.932,0,0,0,2.411,2.656,13.836,13.836,0,0,0,2.519.107c.122,0,.345-.186.348-.291.014-.546-.028-1.095-.052-1.642l-1.26-.184c-.028,0-.058,0-.088,0-1.114-.038-1.562-.38-1.638-1.494C2740.8,326.818,2740.863,325.655,2740.863,324.352Z" transform="translate(-2692.591 -318.035)" fill="#5c5c5b"/>
  <path id="Pfad_259" data-name="Pfad 259" d="M2729,322.108a.973.973,0,0,1-.222.093c-.291.01-.584.013-.875.018-.8.014-.8.014-.814.851,0,.087,0,.175,0,.263,0,.98,0,.98,1.024,1,.058,0,.116,0,.175,0,.579.028.6.036.616.594.015.7-.012,1.4.01,2.1a15.062,15.062,0,0,0,.135,1.827,2.815,2.815,0,0,0,2.2,2.541,11.812,11.812,0,0,0,2.338.189c.723.021.747-.018.75-.73.008-1.5.11-1.4-1.338-1.41-1.261-.008-1.733-.477-1.77-1.753-.027-.9-.01-1.809,0-2.713a4.942,4.942,0,0,1,.073-.589,3.015,3.015,0,0,1,.388-.053c.671-.007,1.343-.013,2.013-.005.391.005.611-.149.608-.559,0-.118,0-.234,0-.351.007-1.374.02-1.2-1.158-1.209-.629-.005-1.258-.018-1.934-.027,0-.691.013-1.273-.009-1.853-.007-.153-.114-.426-.189-.43a10.246,10.246,0,0,0-1.557.017c-.089.008-.2.265-.225.421C2729.145,320.92,2729.081,321.5,2729,322.108Z" transform="translate(-2695.417 -318.018)" fill="#5c5c5b"/>
  <path id="Pfad_260" data-name="Pfad 260" d="M2761.993,322.815c-.183-.811-.512-1.238-1.333-1.136-.749.093-.776.036-.777.811q-.01,3.888,0,7.774c0,.791.014.793.764.81.263.005.524.005.787,0,.756-.014.756-.016.769-.791,0-.145,0-.291,0-.436,0-1.194-.054-2.391.017-3.58.094-1.584.863-2.275,2.2-2.273,1.466,0,1.406.2,1.4-1.524,0-.087,0-.175-.008-.261-.021-.349-.194-.5-.558-.516A4.113,4.113,0,0,0,2761.993,322.815Z" transform="translate(-2685.781 -317.495)" fill="#5c5c5b"/>
  <path id="Pfad_261" data-name="Pfad 261" d="M2796.323,322.635c2.746-1.628,4.022-1.566,5.819.282.191-.17.376-.351.578-.511a3.933,3.933,0,0,1,2.932-.906,3.317,3.317,0,0,1,3.136,3.478c.078,1.865.018,3.734.031,5.6,0,.423-.2.567-.59.555s-.817-.012-1.226,0c-.371.008-.524-.167-.519-.531.01-.613,0-1.225,0-1.839,0-.9.01-1.809-.006-2.713a4.824,4.824,0,0,0-.115-1.038,1.665,1.665,0,0,0-2.857-.833,2.59,2.59,0,0,0-.794,1.969c-.007,1.313,0,2.627-.005,3.94,0,.2-.005.408-.008.612a.387.387,0,0,1-.436.426c-.058,0-.116.007-.175.007-2.061-.023-1.678.246-1.709-1.611-.02-1.109,0-2.218-.005-3.327,0-.233,0-.467-.01-.7a1.725,1.725,0,0,0-1.279-1.769,1.85,1.85,0,0,0-2.18,1.189,5.235,5.235,0,0,0-.3,1.615c-.044,1.284-.008,2.568-.018,3.852-.005.726-.019.732-.731.75-.293.006-.584.006-.876,0-.672-.017-.693-.036-.712-.683-.012-.378,0-.758,0-1.137,0-2.246,0-4.494,0-6.74,0-.8.013-.8.757-.816C2795.924,321.734,2795.924,321.734,2796.323,322.635Z" transform="translate(-2675.676 -317.553)" fill="#5c5c5b"/>
  <path id="Pfad_262" data-name="Pfad 262" d="M2711.842,324.3c-1.483-2.038-3.926-2.422-6.909-1.04v-.889c0-1.051.007-2.1,0-3.152-.007-.757-.016-.761-.8-.77-.379-.005-.76,0-1.139.005a.333.333,0,0,0-.378.37c0,.234-.006.467-.006.7q0,5.691,0,11.382c0,1.176,0,1.163,1.141,1.124.372-.012.613-.11.7-.494a1.862,1.862,0,0,1,.188-.382c2.831,1.665,5.182,1.511,6.92-.435A5.324,5.324,0,0,0,2711.842,324.3Zm-4.25,5.874a2.668,2.668,0,0,1-2.792-2.839,2.618,2.618,0,0,1,2.826-2.768,2.657,2.657,0,0,1,2.845,2.841A2.737,2.737,0,0,1,2707.592,330.171Z" transform="translate(-2702.612 -318.442)" fill="#5c5c5b"/>
  <path id="Pfad_263" data-name="Pfad 263" d="M2771.368,323.4a5.223,5.223,0,0,1,2.408-.989,3.55,3.55,0,0,1,4.1,2.711,5.534,5.534,0,0,1,.179,1.3c.022,1.633.018,3.266.009,4.9,0,.655-.046.7-.7.7-1.9-.012-1.589.229-1.614-1.526-.014-1.049,0-2.1,0-3.149,0-.233.008-.468-.014-.7-.129-1.35-.764-2.026-1.917-2.056a2.239,2.239,0,0,0-2.381,1.969,8.555,8.555,0,0,0-.063,1.221c-.008,1.167.008,2.334-.009,3.5-.009.674-.082.725-.77.744-.146,0-.292,0-.437,0-1.256-.006-1.124.065-1.138-1.075-.052-3.79-.034-7.582,0-11.373.009-1.124.067-1.131,1.177-1.122,1.073.008,1.193-.228,1.18,1.2C2771.36,320.849,2771.368,322.039,2771.368,323.4Z" transform="translate(-2683.104 -318.442)" fill="#5c5c5b"/>
  <path id="Pfad_264" data-name="Pfad 264" d="M2724.473,327.225c.63,0,.726-.1.74-.695a4.772,4.772,0,0,0-.71-2.752,5.032,5.032,0,0,0-9.206,3.439,4.939,4.939,0,0,0,5.63,4.174,4.558,4.558,0,0,0,3.786-2.471,4.07,4.07,0,0,0,.2-.681c-.643,0-1.189.014-1.734-.005a.957.957,0,0,0-.836.37,2.886,2.886,0,0,1-3.615.343,2.014,2.014,0,0,1-1.008-1.718h.986C2720.625,327.229,2722.549,327.236,2724.473,327.225Zm-3.91-3.693a2.2,2.2,0,0,1,2.132,1.862h-4.936A2.48,2.48,0,0,1,2720.563,323.532Z" transform="translate(-2698.904 -317.545)" fill="#5c5c5b"/>
  <path id="Pfad_265" data-name="Pfad 265" d="M2819.823,327.229c.7,0,.851-.124.784-.816a7.412,7.412,0,0,0-.406-1.953,4.809,4.809,0,0,0-5.564-2.879,4.494,4.494,0,0,0-3.663,3.012,4.985,4.985,0,0,0,.748,5.033,5.314,5.314,0,0,0,6.823,1,4.236,4.236,0,0,0,1.8-2.385c-.673,0-1.192.014-1.709-.005a1.168,1.168,0,0,0-.921.383,2.881,2.881,0,0,1-3.476.414,1.863,1.863,0,0,1-1.087-1.8h.991C2816.034,327.233,2817.928,327.238,2819.823,327.229Zm-4.233-3.7a2.31,2.31,0,0,1,2.525,1.867h-4.938A2.291,2.291,0,0,1,2815.59,323.53Z" transform="translate(-2670.87 -317.548)" fill="#5c5c5b"/>
  <path id="Pfad_266" data-name="Pfad 266" d="M2755.821,327.233c.206,0,.409-.005.614-.007.275,0,.457-.124.443-.415a8.883,8.883,0,0,0-.116-1.646c-.936-3.954-5.746-4.645-8.172-2.456a4.923,4.923,0,0,0-1.579,4.342,4.508,4.508,0,0,0,1.755,3.294,5.431,5.431,0,0,0,5.932.387,4.207,4.207,0,0,0,1.948-2.333c-.121-.07-.17-.122-.221-.124-.436-.016-.874-.016-1.308-.035a1.4,1.4,0,0,0-1.147.452c-1.4,1.374-4.333.739-4.572-1.459h6.423Zm-4.063-3.707a2.426,2.426,0,0,1,2.686,1.87h-4.909A2.282,2.282,0,0,1,2751.758,323.526Z" transform="translate(-2689.571 -317.549)" fill="#5c5c5b"/>
  <path id="Pfad_267" data-name="Pfad 267" d="M2786.232,321.474a4.979,4.979,0,1,0,5.13,5.027A4.879,4.879,0,0,0,2786.232,321.474Zm.044,7.81a2.7,2.7,0,0,1-2.823-2.8,2.791,2.791,0,0,1,5.582-.049A2.672,2.672,0,0,1,2786.276,329.284Z" transform="translate(-2679.538 -317.551)" fill="#5c5c5b"/>
  <path id="Pfad_268" data-name="Pfad 268" d="M2824.215,328.241c.2,0,.409.008.612,0a.741.741,0,0,1,.718.378,2.3,2.3,0,0,0,2.88.611.772.772,0,0,0-.035-1.4,7.491,7.491,0,0,0-1.245-.4c-.673-.189-1.363-.322-2.021-.553a2.471,2.471,0,0,1-1.82-2.416,2.622,2.622,0,0,1,1.689-2.543,5.089,5.089,0,0,1,4.323.044,2.891,2.891,0,0,1,1.6,1.977c.132.5.039.616-.5.64-.35.016-.7-.008-1.05.007a.827.827,0,0,1-.779-.436,2.156,2.156,0,0,0-2.606-.392.631.631,0,0,0-.018,1.092,3.165,3.165,0,0,0,.956.4c.619.168,1.251.278,1.872.435a4.3,4.3,0,0,1,.821.3,2.421,2.421,0,0,1,1.568,2.04,2.721,2.721,0,0,1-1.18,2.656,5.551,5.551,0,0,1-5.653-.034,2.86,2.86,0,0,1-1.146-1.705c-.147-.607-.1-.674.492-.7C2823.864,328.234,2824.04,328.241,2824.215,328.241Z" transform="translate(-2667.191 -317.555)" fill="#5c5c5b"/>
  <path id="Pfad_269" data-name="Pfad 269" d="M2740.863,324.352c0,1.3-.062,2.466.017,3.622.076,1.114.524,1.457,1.638,1.494.03,0,.06,0,.088,0l1.26.184c.024.547.066,1.1.052,1.642,0,.1-.227.292-.348.291a13.836,13.836,0,0,1-2.519-.107,2.932,2.932,0,0,1-2.411-2.656,10.052,10.052,0,0,1-.106-1.391c-.016-.757,0-1.515,0-2.272-.008-.794-.012-.794-.841-.809-.982-.018-.983-.018-.983-1.029,0-1.185-.053-1.087,1.087-1.089.59,0,.858.159.9-.8.014-.317.092-.631.139-.948.008-.057,0-.118.015-.173.1-.449.334-.531,1.32-.462.566.039.638.092.666.581.019.348,0,.7.007,1.048.014.736.016.741.719.753.583.009,1.166-.009,1.748.006.555.014.614.061.623.6.027,1.722.063,1.506-1.4,1.514C2742,324.355,2741.482,324.352,2740.863,324.352Z" transform="translate(-2692.591 -318.035)" fill="#5c5c5b"/>
  <path id="Pfad_270" data-name="Pfad 270" d="M2729,322.108c.08-.608.144-1.188.238-1.762.026-.155.136-.413.225-.421a10.246,10.246,0,0,1,1.557-.017c.075,0,.182.277.189.43.022.58.009,1.162.009,1.853.677.009,1.305.022,1.934.027,1.178.012,1.165-.166,1.158,1.209,0,.116,0,.233,0,.351,0,.41-.217.564-.608.559-.67-.008-1.342,0-2.013.005a3.015,3.015,0,0,0-.388.053,4.942,4.942,0,0,0-.073.589c-.007.9-.024,1.81,0,2.713.037,1.276.509,1.745,1.77,1.753,1.448.009,1.345-.085,1.338,1.41,0,.712-.027.75-.75.73a11.812,11.812,0,0,1-2.338-.189,2.815,2.815,0,0,1-2.2-2.541,15.062,15.062,0,0,1-.135-1.827c-.022-.7.005-1.4-.01-2.1-.013-.558-.036-.565-.616-.594-.058,0-.116,0-.175,0-1.021-.023-1.021-.023-1.024-1,0-.088,0-.176,0-.263.012-.837.012-.837.814-.851.291-.005.583-.008.875-.018A.973.973,0,0,0,2729,322.108Z" transform="translate(-2695.417 -318.018)" fill="#5c5c5b"/>
  <path id="Pfad_271" data-name="Pfad 271" d="M2761.993,322.815a4.113,4.113,0,0,1,3.261-1.123c.363.017.537.167.558.516.005.087.006.175.008.261.008,1.726.069,1.526-1.4,1.524-1.338,0-2.106.69-2.2,2.273-.071,1.189-.016,2.386-.017,3.58,0,.145,0,.291,0,.436-.013.775-.013.776-.769.791-.262.005-.523.005-.787,0-.75-.017-.763-.019-.764-.81q-.01-3.886,0-7.774c0-.775.028-.718.777-.811C2761.481,321.577,2761.81,322,2761.993,322.815Z" transform="translate(-2685.781 -317.495)" fill="#5c5c5b"/>
</svg>
